<svg width="64" height="83" viewBox="0 0 64 83" fill="none" xmlns="http://www.w3.org/2000/svg">
<path d="M16.3001 81.9C15.0334 82.1 13.5001 82.0667 11.7001 81.8C9.9001 81.6 7.96677 81.2333 5.9001 80.7C4.83343 80.3667 4.06676 79.9667 3.6001 79.5C3.2001 79.0333 2.5001 78.1667 1.5001 76.9C0.833431 75.9 0.400098 74.7667 0.200098 73.5C0.0667646 72.2333 0.233431 71.1 0.700098 70.1C1.23343 69.1 2.1001 68.5 3.3001 68.3C3.83343 68.1667 4.46676 68.3 5.2001 68.7C6.0001 69.0333 6.83343 69.4667 7.7001 70C9.1001 70.8 10.6001 71.6 12.2001 72.4C13.8001 73.2667 15.2668 73.6 16.6001 73.4C17.5334 73.2 18.6334 73.0667 19.9001 73C21.2334 73 22.5001 72.9 23.7001 72.7C24.9668 72.5 25.9668 72.1333 26.7001 71.6C30.2334 69.2 32.8668 67.3 34.6001 65.9C36.3334 64.4333 37.2001 63.7 37.2001 63.7C37.3334 63.4333 37.5668 63.2333 37.9001 63.1C38.3001 62.9 38.7668 62.7 39.3001 62.5C39.7001 62.1 40.3334 61.4667 41.2001 60.6C42.0668 59.6667 42.9001 58.7667 43.7001 57.9C44.5668 57.0333 45.1001 56.5333 45.3001 56.4C45.4334 55.8 45.5668 55.3333 45.7001 55C45.8334 54.6 45.9001 54.2 45.9001 53.8C46.4334 53.2667 47.1334 52.1667 48.0001 50.5C48.9334 48.7667 49.8668 46.8667 50.8001 44.8C51.7334 42.6667 52.4001 40.7333 52.8001 39C53.6668 35.3333 53.9668 32 53.7001 29C53.4334 26 52.6668 23.3 51.4001 20.9C50.1334 18.5 48.4334 16.4 46.3001 14.6C45.5668 14 44.5668 13.3667 43.3001 12.7C42.0334 11.9667 40.7334 11.3 39.4001 10.7C38.0668 10.0333 36.8668 9.53333 35.8001 9.2C34.8001 8.86667 34.2001 8.73334 34.0001 8.80001C33.7334 8.86667 33.2001 9.9 32.4001 11.9C31.6668 13.8333 30.7334 16.3333 29.6001 19.4C28.5334 22.4667 27.3668 25.7667 26.1001 29.3C24.9001 32.7667 23.7334 36.0667 22.6001 39.2C22.2668 40.4667 21.8334 41.8 21.3001 43.2C20.8334 44.6 20.4334 45.8333 20.1001 46.9C19.7668 47.9 19.6001 48.5667 19.6001 48.9C18.8668 50.0333 18.1001 51.7667 17.3001 54.1C16.5001 56.4333 15.8334 59.7667 15.3001 64.1C14.7001 66.3667 14.2668 68.2667 14.0001 69.8C13.7334 71.2667 13.4668 71.9667 13.2001 71.9C13.2001 71.9 13.1668 72.2 13.1001 72.8C13.0334 73.4667 12.9001 73.9 12.7001 74.1C12.7001 74.5 12.3001 74.7667 11.5001 74.9C10.7001 75.0333 9.76677 74.8667 8.7001 74.4C7.63343 73.9333 6.63343 73.0333 5.7001 71.7C5.5001 70.9667 5.33343 69.9 5.2001 68.5C5.13343 67.0333 5.36676 65.3333 5.9001 63.4C6.23343 62.1333 6.7001 60.5 7.3001 58.5C7.9001 56.5 8.56677 54.4333 9.3001 52.3C10.0334 50.1667 10.7001 48.2 11.3001 46.4C11.9668 44.6 12.4334 43.2667 12.7001 42.4C13.1668 41.2667 13.8334 39.1333 14.7001 36C15.2334 34.2667 15.7668 32.5333 16.3001 30.8C16.9001 29.0667 17.4668 27.5333 18.0001 26.2C18.5334 24.8 18.9001 23.9 19.1001 23.5C19.4334 22.6333 19.8334 21.2333 20.3001 19.3C20.8334 17.3 21.6334 15.0333 22.7001 12.5L23.4001 9.2L22.3001 8.7C21.5001 8.96667 20.8668 9.06667 20.4001 9C20.0001 8.86667 19.7334 8.76667 19.6001 8.7C19.2001 8.83334 18.6668 8.73334 18.0001 8.40001C17.4001 8 16.8334 7.5 16.3001 6.9C15.8334 6.3 15.5334 5.8 15.4001 5.4C15.2668 5.13334 15.1668 4.8 15.1001 4.4C15.1001 3.93334 15.1001 3.7 15.1001 3.7C15.1668 3.3 15.7334 2.9 16.8001 2.5C17.8668 2.03334 19.2334 1.6 20.9001 1.2C22.6334 0.800005 24.4668 0.500004 26.4001 0.300003C28.3334 0.100002 30.1334 0.0666687 31.8001 0.200004C33.5334 0.333336 35.6668 0.733335 38.2001 1.4C40.7334 2.06667 42.9001 2.73334 44.7001 3.4C46.8334 4.2 49.1334 5.56667 51.6001 7.50001C54.0668 9.43334 56.3001 11.7333 58.3001 14.4C60.3668 17.0667 61.7334 19.8667 62.4001 22.8C62.6001 23.6 62.8001 24.7333 63.0001 26.2C63.2001 27.6667 63.3001 29.1 63.3001 30.5C63.3668 31.8333 63.2334 32.7 62.9001 33.1C62.7668 33.3667 62.6668 33.7 62.6001 34.1C62.6001 34.4333 62.7334 34.6667 63.0001 34.8C62.9334 35 62.7001 35.7667 62.3001 37.1C61.9001 38.3667 61.5334 39.4667 61.2001 40.4C61.0668 42.1333 60.6001 44.1333 59.8001 46.4C59.0668 48.6667 58.2334 50.8333 57.3001 52.9C56.4334 54.9 55.6668 56.4667 55.0001 57.6C54.7334 57.6 54.4668 57.6667 54.2001 57.8C54.0001 57.8667 54.0334 57.9333 54.3001 58C54.3001 58.3333 53.9334 58.9667 53.2001 59.9C52.9334 60.1 52.5001 60.6 51.9001 61.4C51.3668 62.1333 50.9334 62.6333 50.6001 62.9C50.5334 63.3667 50.3334 63.7667 50.0001 64.1C49.6668 64.3667 49.3668 64.5 49.1001 64.5C49.1001 64.5 49.0334 64.5 48.9001 64.5C48.8334 64.5 48.8001 64.6333 48.8001 64.9C48.2668 65.7 47.3668 66.7333 46.1001 68C44.8334 69.2667 43.4001 70.5667 41.8001 71.9C40.2001 73.2333 38.6001 74.4667 37.0001 75.6C35.4001 76.7333 33.9334 77.5667 32.6001 78.1C31.9334 78.5667 31.2334 78.9333 30.5001 79.2C29.7668 79.5333 29.0668 79.8667 28.4001 80.2C28.0668 80.4667 27.1001 80.7 25.5001 80.9C23.9001 81.1 22.2001 81.2667 20.4001 81.4C18.6668 81.5333 17.3001 81.7 16.3001 81.9Z" fill="#FE7F2D"/>
</svg>
